<svg width="19" height="16" viewBox="0 0 19 16" fill="none" xmlns="http://www.w3.org/2000/svg">
<path d="M4.17221 11.8468H14.0095L14.0097 9.07174C14.0097 6.2391 11.6173 3.96169 8.74651 4.15308C6.12454 4.3253 4.15321 6.62191 4.15321 9.24399L4.15308 11.8469L4.17221 11.8468ZM5.97129 9.07174C5.97129 7.34932 7.36839 5.95209 9.09094 5.95209C9.41629 5.95209 9.68421 6.22002 9.68421 6.54536C9.68421 6.87069 9.41628 7.13862 9.09094 7.13862C8.03828 7.13862 7.17707 7.99983 7.17707 9.0525V10.0285C7.17707 10.3539 6.90913 10.6218 6.5838 10.6218C6.25847 10.6218 5.99053 10.3539 5.99053 10.0285V9.07174H5.97129Z" fill="white"/>
<path d="M9.09095 2.77505C9.41629 2.77505 9.68422 2.50712 9.68422 2.18178V0.593267C9.68422 0.267926 9.41628 0 9.09095 0C8.76562 0 8.49768 0.267936 8.49768 0.593267V2.18178C8.49768 2.50713 8.76562 2.77505 9.09095 2.77505Z" fill="white"/>
<path d="M3.78947 4.61237C3.90428 4.72718 4.0574 4.78459 4.21052 4.78459C4.36364 4.78459 4.51677 4.72718 4.63157 4.61237C4.8612 4.38275 4.8612 3.99986 4.63157 3.75116L3.50242 2.62201C3.2728 2.39238 2.88991 2.39238 2.64121 2.62201C2.41159 2.85163 2.41159 3.23452 2.64121 3.48322L3.78947 4.61237Z" fill="white"/>
<path d="M2.79429 9.0717C2.79429 8.74635 2.52636 8.47843 2.20103 8.47843L0.593267 8.47829C0.267926 8.47829 0 8.74623 0 9.07156C0 9.39689 0.267936 9.66483 0.593267 9.66483L2.20089 9.66496C2.52636 9.66496 2.79429 9.39703 2.79429 9.0717Z" fill="white"/>
<path d="M17.5885 8.45926H15.9808C15.6555 8.45926 15.3876 8.7272 15.3876 9.05253C15.3876 9.37786 15.6555 9.64579 15.9808 9.64579H17.5694C17.8947 9.64579 18.1626 9.37786 18.1626 9.05253C18.1626 8.7272 17.9138 8.45926 17.5884 8.45926H17.5885Z" fill="white"/>
<path d="M13.9713 4.78462C14.1244 4.78462 14.2776 4.72721 14.3924 4.6124L15.5215 3.48325C15.7512 3.25363 15.7512 2.87074 15.5215 2.62204C15.2919 2.39242 14.909 2.39242 14.6603 2.62204L13.5503 3.7703C13.3206 3.99992 13.3206 4.3828 13.5503 4.63151C13.6651 4.72723 13.8182 4.78463 13.9713 4.78463V4.78462Z" fill="white"/>
<path d="M14.5646 13.0526H3.61727C2.81345 13.0526 2.14355 13.7032 2.14355 14.5263C2.14355 15.3301 2.79424 16 3.61727 16H14.5646C15.3685 16 16.0384 15.3493 16.0384 14.5263C16.0384 13.7034 15.3875 13.0526 14.5646 13.0526Z" fill="white"/>
</svg>
