<svg width="22" height="22" viewBox="0 0 22 22" fill="none" xmlns="http://www.w3.org/2000/svg">
<path d="M11 21C8.34784 21 5.8043 19.9464 3.92893 18.0711C2.05357 16.1957 1 13.6522 1 11V11C1 8.34784 2.05357 5.8043 3.92893 3.92893C5.8043 2.05357 8.34784 1 11 1V1C13.6522 1 16.1957 2.05357 18.0711 3.92893C19.9464 5.8043 21 8.34784 21 11V11C21 13.6522 19.9464 16.1957 18.0711 18.0711C16.1957 19.9464 13.6522 21 11 21V21ZM11 5.44444C10.121 5.44444 9.26168 5.70511 8.5308 6.19347C7.79991 6.68183 7.23026 7.37596 6.89387 8.18807C6.55748 9.00019 6.46946 9.89382 6.64095 10.756C6.81244 11.6181 7.23574 12.41 7.8573 13.0316C8.47887 13.6532 9.27079 14.0764 10.1329 14.2479C10.9951 14.4194 11.8887 14.3314 12.7008 13.995C13.5129 13.6586 14.2071 13.089 14.6954 12.3581C15.1838 11.6272 15.4444 10.7679 15.4444 9.88889C15.4444 8.71015 14.9762 7.57969 14.1427 6.74619C13.3092 5.9127 12.1787 5.44444 11 5.44444ZM13.4111 13.6111C12.6951 14.0819 11.8569 14.3327 11 14.3327C10.1431 14.3327 9.30491 14.0819 8.58889 13.6111C7.53083 13.9548 6.55881 14.5214 5.73843 15.2728C4.91805 16.0242 4.26841 16.9428 3.83333 17.9667C4.7569 18.9156 5.85973 19.6716 7.07781 20.1908C8.2959 20.7101 9.60498 20.9823 10.9291 20.9916C12.2532 21.0009 13.566 20.7471 14.7913 20.245C16.0165 19.7429 17.1299 19.0025 18.0667 18.0667L18.1667 17.9667C17.7316 16.9428 17.0819 16.0242 16.2616 15.2728C15.4412 14.5214 14.4692 13.9548 13.4111 13.6111V13.6111Z" stroke="#808D9E" stroke-width="1.5" stroke-linecap="round" stroke-linejoin="round"/>
</svg>
